# xmcd
#
# Track frame offsets: 
#        150
#        18900
#        38250
#        53250
#        68550
#        85950
#        105450
#        121875
#        139575
#        164325
#        179850
#        197700
#        215850
#        237150
#        255375
#        273075
#
# Disc length: 3840 seconds
#
# Revision: 0
# Processed by: cddbd v1.4PL0 Copyright (c) Steve Scherf et al.
# Submitted via: ExactAudioCopy v0.95a3
#
DISCID=cf0efe10
DTITLE=Various Artist - PT Country Hits 2
DYEAR=1900
DGENRE=Country
TTITLE0=Jackson, Alan - Where I Come From
TTITLE1=Womack, Lee Ann - I Hope You Dance
TTITLE2=Keith, Toby - I'm Just Talkin' About Tonight
TTITLE3=Trick Pony - Pour Me
TTITLE4=Steve Holy - Good Morning Beautiful
TTITLE5=O'Neal, Jamie - There Is No Arizona
TTITLE6=Brooks and Dunn - Ain't Nothing 'Bout You
TTITLE7=McBride, Martina - When God Fearin' Women
TTITLE8=Jackson, Alan - Where Were You
TTITLE9=O'Neal, Jamie - When I Think About Angels
TTITLE10=McGraw, Tim - My Next Thirty Years
TTITLE11=Hill, Faith - There You'll Be
TTITLE12=Tritt, Travis - It's A Great Day To Be Alive
TTITLE13=Evans, Sara - Born To Fly
TTITLE14=Diamond Rio - One More Day
TTITLE15=Hill, Faith - The Way You Love Me
EXTD=
EXTT0=
EXTT1=
EXTT2=
EXTT3=
EXTT4=
EXTT5=
EXTT6=
EXTT7=
EXTT8=
EXTT9=
EXTT10=
EXTT11=
EXTT12=
EXTT13=
EXTT14=
EXTT15=
PLAYORDER=
